<svg width="128" height="128" viewBox="0 0 128 128" fill="none" xmlns="http://www.w3.org/2000/svg">
  <rect width="128" height="128" rx="32" fill="#F5F0FF"/>
  <path d="M64 102S24 78.5 24 48.5C24 35.5 33.6 26 46.2 26C54 26 60.4 30.2 64 36.2C67.6 30.2 74 26 81.8 26C94.4 26 104 35.5 104 48.5C104 78.5 64 102 64 102Z" fill="#A78BFA"/>
  <path d="M64 91S34 72.8 34 49.9C34 40.3 40.9 33.4 49.8 33.4C56.2 33.4 61.3 37.3 64 42.5C66.7 37.3 71.8 33.4 78.2 33.4C87.1 33.4 94 40.3 94 49.9C94 72.8 64 91 64 91Z" fill="#FFFFFF" fill-opacity="0.72"/>
</svg>
